<svg width="24" height="24" fill="none" xmlns="http://www.w3.org/2000/svg"><path fill-rule="evenodd" clip-rule="evenodd" d="M15.92 12.799a4 4 0 00-4.719-4.719l.923.923a3 3 0 012.873 2.873l.923.923zm-6.527-2.285a3 3 0 004.093 4.093l.726.726a4 4 0 01-5.545-5.545l.726.726z" fill="#222"/><path fill-rule="evenodd" clip-rule="evenodd" d="M16.154 17.275l-.735-.734c-1.064.579-2.22.959-3.42.959-1.671 0-3.261-.74-4.632-1.726-1.367-.984-2.474-2.182-3.17-3.026-.424-.515-.468-.604-.468-.748 0-.143.044-.233.469-.748.669-.812 1.72-1.953 3.017-2.915l-.714-.714C5.17 8.63 4.104 9.793 3.426 10.616l-.059.072c-.33.399-.638.77-.638 1.312s.307.913.638 1.312l.059.072c.725.88 1.894 2.149 3.357 3.201C8.242 17.635 10.036 18.5 12 18.5c1.51 0 2.92-.511 4.154-1.225zM9.19 6.069c.88-.35 1.823-.569 2.81-.569 1.964 0 3.758.865 5.217 1.915 1.463 1.052 2.632 2.321 3.357 3.201l.058.072c.331.399.638.77.638 1.312s-.307.913-.637 1.312l-.06.072a19.977 19.977 0 01-1.982 2.086l-.708-.708a18.953 18.953 0 001.919-2.014c.424-.515.468-.604.468-.748 0-.143-.044-.233-.468-.748-.695-.844-1.802-2.042-3.17-3.026C15.263 7.24 13.673 6.5 12 6.5c-.695 0-1.375.128-2.031.348l-.78-.78z" fill="#222"/><path d="M5 2l16 16" stroke="#222"/></svg>