<svg width="128" height="128" fill="none" xmlns="http://www.w3.org/2000/svg"><path fill-rule="evenodd" clip-rule="evenodd" d="M93.334 58.666c-11.314 0-16.97 0-20.485-3.515-3.515-3.514-3.515-9.171-3.515-20.485s0-16.97 3.515-20.485c3.514-3.515 9.171-3.515 20.485-3.515s16.971 0 20.485 3.515c3.515 3.514 3.515 9.171 3.515 20.485s0 16.97-3.515 20.485c-3.514 3.515-9.171 3.515-20.485 3.515zm4-34.667a4 4 0 00-8 0v6.667h-6.667a4 4 0 000 8h6.667v6.667a4 4 0 108 0v-6.667h6.667a4 4 0 000-8h-6.667v-6.667z" fill="#452E47" fill-opacity=".25"/><path opacity=".5" d="M117.331 67.721c-.008 7.838-.067 14.5-.513 19.966-.516 6.343-1.576 11.644-3.946 16.046a22.295 22.295 0 01-3.895 5.244c-4.439 4.44-10.095 6.451-17.263 7.414-7.002.942-15.977.942-27.43.942h-.57c-11.452 0-20.427 0-27.43-.942-7.167-.963-12.823-2.974-17.263-7.414-3.935-3.935-5.968-8.834-7.048-14.91-1.062-5.97-1.256-13.396-1.297-22.618-.01-2.346-.01-4.827-.01-7.445v-.29c0-11.452 0-20.427.941-27.43.964-7.167 2.975-12.823 7.414-17.263 4.44-4.439 10.096-6.45 17.263-7.414 6.228-.837 14.24-.93 23.993-.94a3.72 3.72 0 110 7.442c-9.891.01-17.251.1-23.001.874-6.343.853-10.166 2.474-12.992 5.3-2.827 2.827-4.448 6.65-5.301 12.993-.867 6.45-.875 14.924-.875 26.723 0 1.441 0 2.835.002 4.184l4.966-4.346a11.41 11.41 0 0115.583.519l21.283 21.282a9.922 9.922 0 0012.721 1.102l1.48-1.04a14.884 14.884 0 0118.514 1.115L106.7 99.453c1.414-2.968 2.253-6.868 2.701-12.37.423-5.184.481-11.481.489-19.362A3.724 3.724 0 01113.612 64a3.718 3.718 0 013.719 3.722z" fill="#452E47"/></svg>