<svg width="14" height="14" fill="none" xmlns="http://www.w3.org/2000/svg"><path d="M12.25 9.626a2.042 2.042 0 11-4.084 0 2.042 2.042 0 014.083 0z" fill="#fff"/><path fill-rule="evenodd" clip-rule="evenodd" d="M.729 5.834c0-.242.195-.438.437-.438h11.667a.438.438 0 010 .875H1.166a.437.437 0 01-.437-.437z" fill="#fff"/><path opacity=".5" d="M2.443 5.396l.249-.995c.318-1.273.478-1.91.952-2.28.475-.371 1.131-.371 2.444-.371h1.826c1.312 0 1.968 0 2.443.37.475.371.634 1.008.952 2.281l.249.995H2.443z" fill="#fff"/><path d="M5.833 9.626a2.042 2.042 0 11-4.083 0 2.042 2.042 0 014.083 0z" fill="#fff"/><path opacity=".5" d="M5.766 10.148a2.045 2.045 0 00.015-.986l.24-.12a2.188 2.188 0 011.957 0l.241.12a2.048 2.048 0 00.015.986l-.647-.324a1.313 1.313 0 00-1.174 0l-.647.324z" fill="#fff"/></svg>