<svg width="18" height="18" fill="none" xmlns="http://www.w3.org/2000/svg"><path d="M12 3c1.631.01 2.515.081 3.091.658.659.659.659 1.72.659 3.84v4.5c0 2.122 0 3.183-.659 3.842-.659.659-1.72.659-3.841.659h-4.5c-2.121 0-3.182 0-3.841-.66-.659-.658-.659-1.719-.659-3.84v-4.5c0-2.122 0-3.182.659-3.841C3.485 3.08 4.369 3.009 6 3" stroke="#000" stroke-opacity=".7"/><path d="M6 2.625C6 2.004 6.504 1.5 7.125 1.5h3.75c.621 0 1.125.504 1.125 1.125v.75c0 .621-.504 1.125-1.125 1.125h-3.75A1.125 1.125 0 016 3.375v-.75z" stroke="#000" stroke-opacity=".7"/><path d="M11.25 9.75H9m0 0H6.75m2.25 0V7.5m0 2.25V12" stroke="#000" stroke-opacity=".7" stroke-linecap="round"/></svg>