<svg width="64" height="64" fill="none" xmlns="http://www.w3.org/2000/svg"><path d="M46.668 9.334h6.867c1.791 0 2.687 0 3.243.556.557.557.557 1.453.557 3.244v6.867M46.668 54.666h6.867c1.791 0 2.687 0 3.243-.556.557-.557.557-1.453.557-3.244v-6.867M17.332 9.334h-6.867c-1.791 0-2.687 0-3.243.556-.557.557-.557 1.453-.557 3.244v6.867m10.667 34.665h-6.867c-1.791 0-2.687 0-3.243-.556-.557-.557-.557-1.453-.557-3.244v-6.867m11.89-2.382c1.35-1.949 3.3-3.578 5.662-4.714 2.362-1.136 5.046-1.737 7.783-1.737s5.421.6 7.783 1.737c2.362 1.136 4.312 2.765 5.662 4.714" stroke="#000" stroke-opacity=".35" stroke-linecap="round"/><circle cx="32" cy="24" r="7.5" stroke="#000" stroke-opacity=".35" stroke-linecap="round"/></svg>